<?xml version="1.0" encoding="UTF-8"?>
<svg xmlns="http://www.w3.org/2000/svg" xmlns:xlink="http://www.w3.org/1999/xlink" version="1.1" viewBox="0 0 1676 352">
  <defs>
    <style>
      .cls-1 {
        fill: none;
      }

      .cls-2 {
        fill: #ff01d5;
      }

      .cls-3 {
        clip-path: url(#clippath);
      }
    </style>
    <clipPath id="clippath">
      <rect class="cls-1" y=".6" width="1675.8" height="350.8"/>
    </clipPath>
  </defs>
  <!-- Generator: Adobe Illustrator 28.6.0, SVG Export Plug-In . SVG Version: 1.2.0 Build 709)  -->
  <g>
    <g id="Layer_1">
      <g class="cls-3">
        <g>
          <path class="cls-2" d="M920.7,53.1h0c-40.3-9.5-99.6,4.5-115.6,36.8-.2.4-.7.7-1.2.8-.5,0-1-.2-1.2-.6-16.6-26.6-42.9-41.2-74.2-41.2s-1,0-1.5,0c-31.4.5-61.8,15.9-76.5,37.5h-.9c2.8-13.1,4.7-28.3,5.2-35.7h-107.2l-.4,293.3h101.1l.4-152.2c.3-27.8,17.8-43.3,34.1-43.8.3,0,.5,0,.8,0,12.9,0,30.1,9.5,30.1,36.9v159h110.4v-151.6c.3-27.8,17.9-43.3,34.3-43.8.3,0,.5,0,.8,0,12.9,0,30.2,9.5,30.2,36.9v158.6h110.4v-171.4c0-87.8-49.7-112.5-79.2-119.5Z"/>
          <path class="cls-2" d="M228.4,50.6c0,40.3-15.8,119.3-54.2,168L109,48.4,0,62.9l108,281h109.9c34.7-39,64.3-86.7,83.7-133.8,0,0,35.4-73.9,35.4-159.5h-108.7Z"/>
          <path class="cls-2" d="M514.6,149.8c1.8-5.1,16.6-52.1,21.3-99.2h-87.9c8.6-22.3,8.8-43.4,9-50.1h-107.4l.2,198h0c0,87,51.2,145.4,135.1,145.4h49.8v-99.3h-38.1c-28.9,0-44.4-23.5-44.4-57v-37.7h62.4Z"/>
          <path class="cls-2" d="M1654.9,104.6c-13.9-24.3-33.2-43-57.9-56.1-24.7-13.1-52.8-19.7-84.3-19.7s-59.6,6.6-84.3,19.7c-24.7,13.1-44,31.8-57.9,56.1-13.9,24.3-20.9,52.8-20.9,85.5s7,61.2,20.9,85.5c13.9,24.3,33.2,43,57.9,56.1,24.7,13.1,52.8,19.7,84.3,19.7s59.6-6.5,84.3-19.7c24.7-13.1,44-31.8,57.9-56.1,13.9-24.3,20.9-52.8,20.9-85.5s-7-61.2-20.9-85.5ZM1562.9,251.5c-12,14.4-28.7,21.7-50.1,21.7s-38.1-7.2-50.1-21.7c-12-14.4-18-34.9-18-61.4s6-47,18-61.4c12-14.4,28.7-21.6,50.1-21.6s38.1,7.2,50.1,21.6c12,14.4,18,34.9,18,61.4s-6,47-18,61.4Z"/>
          <polygon class="cls-2" points="1203.6 180.4 1203.6 180.4 1203.6 180.4 1203.6 180.4"/>
          <path class="cls-2" d="M1189.6,245.5h43.9c-2.7,5.9-6.5,11.3-11.6,16-8.4,7.8-21.1,11.7-38.1,11.7s-22.6-2.3-31.7-6.7c-1.9-1-3.8-2-5.6-3.2-10.4-7.2-18.2-17.1-23.4-29.7-5.2-12.6-7.8-27.1-7.8-43.5,0-26.1,5.9-46.4,17.7-61.1,11.8-14.7,28.8-22,50.9-22s29.7,3.9,38.1,11.6c8.4,7.8,13.6,17.2,15.5,28.4h91.8c-1.2-22.9-7.8-43.2-19.8-61.1-12-17.9-28.8-31.9-50.2-42-21.5-10.1-46.6-15.2-75.5-15.2s-61.3,6.6-86,19.8c-24.7,13.2-43.8,31.9-57.2,56.3-13.5,24.3-20.2,52.7-20.2,85.3s6.7,61.6,20.1,86c13.4,24.4,31.7,43,54.9,55.9,23.2,12.9,49.2,19.3,77.9,19.3s36.3-3.6,50.8-10.9c14.5-7.2,26.2-17.5,34.9-30.9,1.7-2.4,4.1-7,7-12.9v47.2h66.4v-163.5h-128.8c-2.1,21.2-6.6,43.3-14,65Z"/>
        </g>
      </g>
    </g>
  </g>
</svg>